<?xml version="1.0" encoding="utf-8"?>
<!-- Generator: Adobe Illustrator 26.0.3, SVG Export Plug-In . SVG Version: 6.00 Build 0)  -->
<svg version="1.1" id="Laag_1" xmlns="http://www.w3.org/2000/svg" xmlns:xlink="http://www.w3.org/1999/xlink" x="0px" y="0px"
	 viewBox="0 0 280.1 311.1" style="enable-background:new 0 0 280.1 311.1;" xml:space="preserve">
<style type="text/css">
	.st0{fill:#009FE3;}
	.st1{fill:none;stroke:#003254;stroke-width:2.99;stroke-linejoin:round;stroke-miterlimit:10;}
	.st2{fill:none;stroke:#003254;stroke-width:2.99;stroke-linecap:round;stroke-linejoin:round;stroke-miterlimit:10;}
	.st3{fill:#003254;}
</style>
<g>
	<path class="st0" d="M146.6,306l-0.1-1.5c1.5-0.1,3-0.1,4.5-0.2l0.1,1.5C149.6,305.9,148.1,305.9,146.6,306z M154.2,305.5L154,304
		c1.5-0.1,3-0.3,4.5-0.5l0.2,1.5C157.2,305.2,155.7,305.4,154.2,305.5z M161.7,304.6l-0.2-1.5c1.5-0.2,3-0.5,4.4-0.8l0.3,1.5
		C164.8,304.1,163.2,304.3,161.7,304.6z M169.2,303.2l-0.3-1.5c1.5-0.3,2.9-0.6,4.4-1l0.4,1.5C172.2,302.6,170.7,302.9,169.2,303.2z
		 M176.6,301.5l-0.4-1.4c1.4-0.4,2.9-0.8,4.3-1.2l0.4,1.4C179.5,300.6,178.1,301.1,176.6,301.5z M183.9,299.3l-0.5-1.4
		c1.4-0.5,2.9-1,4.3-1.5l0.5,1.4C186.8,298.3,185.4,298.8,183.9,299.3z M191.1,296.7l-0.6-1.4c1.4-0.6,2.8-1.1,4.2-1.7l0.6,1.4
		C193.9,295.5,192.5,296.1,191.1,296.7z M198.1,293.7l-0.6-1.4c1.4-0.6,2.7-1.3,4.1-2l0.7,1.3C200.9,292.4,199.5,293,198.1,293.7z
		 M204.9,290.3l-0.7-1.3c1.3-0.7,2.6-1.4,3.9-2.2l0.8,1.3C207.6,288.8,206.2,289.6,204.9,290.3z M211.5,286.5l-0.8-1.3
		c1.3-0.8,2.6-1.6,3.8-2.4l0.8,1.3C214.1,284.9,212.8,285.7,211.5,286.5z M217.9,282.4l-0.8-1.2c1.2-0.8,2.5-1.7,3.7-2.6l0.9,1.2
		C220.4,280.6,219.2,281.5,217.9,282.4z M224.1,277.9l-0.9-1.2c1.2-0.9,2.4-1.9,3.5-2.8l1,1.2C226.5,276,225.3,277,224.1,277.9z
		 M230,273.1l-1-1.1c1.1-1,2.3-2,3.4-3l1,1.1C232.3,271.1,231.1,272.1,230,273.1z M235.6,267.9l-1-1.1c1.1-1,2.1-2.1,3.2-3.2l1.1,1
		C237.8,265.8,236.7,266.9,235.6,267.9z M240.9,262.5l-1.1-1c1-1.1,2-2.2,3-3.4l1.1,1C242.9,260.2,241.9,261.4,240.9,262.5z
		 M245.9,256.8l-1.2-1c0.9-1.1,1.9-2.3,2.8-3.5l1.2,0.9C247.8,254.4,246.9,255.6,245.9,256.8z M250.6,250.8l-1.2-0.9
		c0.9-1.2,1.8-2.4,2.6-3.7l1.2,0.8C252.4,248.3,251.5,249.5,250.6,250.8z M254.9,244.5l-1.3-0.8c0.8-1.2,1.6-2.5,2.4-3.8l1.3,0.8
		C256.5,242,255.7,243.3,254.9,244.5z M258.9,238l-1.3-0.7c0.7-1.3,1.5-2.6,2.2-3.9l1.3,0.7C260.4,235.4,259.6,236.7,258.9,238z
		 M262.5,231.4l-1.3-0.7c0.7-1.3,1.3-2.7,2-4.1l1.4,0.6C263.8,228.6,263.2,230,262.5,231.4z M265.7,224.5l-1.4-0.6
		c0.6-1.4,1.2-2.8,1.7-4.2l1.4,0.6C266.9,221.7,266.3,223.1,265.7,224.5z M268.5,217.4l-1.4-0.5c0.5-1.4,1-2.8,1.5-4.3l1.4,0.5
		C269.6,214.6,269,216,268.5,217.4z M271,210.2l-1.4-0.4c0.4-1.4,0.9-2.9,1.2-4.3l1.4,0.4C271.8,207.3,271.4,208.8,271,210.2z
		 M273,202.9l-1.5-0.4c0.4-1.4,0.7-2.9,1-4.4l1.5,0.3C273.7,199.9,273.3,201.4,273,202.9z M274.6,195.5l-1.5-0.3
		c0.3-1.5,0.5-3,0.8-4.4l1.5,0.2C275.1,192.5,274.9,194,274.6,195.5z M275.8,187.9l-1.5-0.2c0.2-1.5,0.4-3,0.5-4.5l1.5,0.1
		C276.1,184.9,276,186.4,275.8,187.9z M276.5,180.4l-1.5-0.1c0.1-1.5,0.2-3,0.2-4.5l1.5,0.1C276.7,177.3,276.6,178.9,276.5,180.4z"
		/>
	<path class="st0" d="M275.3,165.2c-0.1-1.5-0.1-3-0.2-4.5l1.5-0.1c0.1,1.5,0.2,3,0.3,4.5L275.3,165.2z M274.8,157.7
		c-0.1-1.5-0.3-3-0.5-4.5l1.5-0.2c0.2,1.5,0.4,3,0.5,4.5L274.8,157.7z M273.9,150.2c-0.2-1.5-0.5-3-0.8-4.4l1.5-0.3
		c0.3,1.5,0.5,3,0.8,4.5L273.9,150.2z M272.5,142.8c-0.3-1.5-0.6-2.9-1-4.4l1.5-0.4c0.4,1.5,0.7,3,1,4.4L272.5,142.8z M270.8,135.5
		c-0.4-1.4-0.8-2.9-1.2-4.3l1.4-0.4c0.4,1.5,0.9,2.9,1.3,4.4L270.8,135.5z M268.6,128.3c-0.5-1.4-1-2.9-1.5-4.3l1.4-0.5
		c0.5,1.4,1,2.9,1.5,4.3L268.6,128.3z M266,121.2c-0.5-1.4-1.1-2.8-1.7-4.2l1.4-0.6c0.6,1.4,1.2,2.8,1.8,4.2L266,121.2z
		 M263.1,114.3c-0.6-1.4-1.3-2.7-2-4.1l1.3-0.7c0.7,1.3,1.3,2.7,2,4.1L263.1,114.3z M259.7,107.5c-0.7-1.3-1.4-2.6-2.2-3.9l1.3-0.8
		c0.8,1.3,1.5,2.7,2.2,4L259.7,107.5z M256,101c-0.8-1.3-1.6-2.6-2.4-3.8l1.3-0.8c0.8,1.3,1.6,2.6,2.4,3.9L256,101z M251.9,94.7
		c-0.9-1.2-1.7-2.5-2.6-3.7l1.2-0.9c0.9,1.2,1.8,2.5,2.6,3.7L251.9,94.7z M247.5,88.6c-0.9-1.2-1.9-2.4-2.8-3.5l1.2-1
		c1,1.2,1.9,2.4,2.8,3.6L247.5,88.6z M242.7,82.7c-1-1.1-2-2.3-3-3.4l1.1-1c1,1.1,2.1,2.3,3,3.4L242.7,82.7z M237.6,77.2
		c-1-1.1-2.1-2.1-3.2-3.2l1-1.1c1.1,1,2.2,2.1,3.2,3.2L237.6,77.2z M232.2,71.9c-1.1-1-2.2-2-3.4-3l1-1.1c1.1,1,2.3,2,3.4,3
		L232.2,71.9z M226.6,67c-1.1-0.9-2.3-1.9-3.5-2.8L224,63c1.2,0.9,2.4,1.9,3.6,2.8L226.6,67z M220.6,62.4c-1.2-0.9-2.4-1.8-3.7-2.6
		l0.8-1.2c1.2,0.8,2.5,1.7,3.7,2.6L220.6,62.4z M214.5,58.1c-1.3-0.8-2.5-1.6-3.8-2.4l0.8-1.3c1.3,0.8,2.6,1.6,3.9,2.4L214.5,58.1z
		 M208.1,54.2c-1.3-0.7-2.6-1.5-3.9-2.2l0.7-1.3c1.3,0.7,2.7,1.4,4,2.2L208.1,54.2z M201.4,50.6c-1.3-0.7-2.7-1.3-4.1-2l0.6-1.4
		c1.4,0.6,2.8,1.3,4.1,2L201.4,50.6z M194.7,47.4c-1.4-0.6-2.8-1.2-4.2-1.7l0.6-1.4c1.4,0.6,2.8,1.1,4.2,1.7L194.7,47.4z
		 M187.7,44.6c-1.4-0.5-2.8-1-4.3-1.5l0.5-1.4c1.4,0.5,2.9,1,4.3,1.5L187.7,44.6z M180.6,42.2c-1.4-0.4-2.9-0.9-4.3-1.2l0.4-1.4
		c1.5,0.4,2.9,0.8,4.4,1.3L180.6,42.2z M173.3,40.2c-1.4-0.4-2.9-0.7-4.4-1l0.3-1.5c1.5,0.3,3,0.7,4.4,1L173.3,40.2z M165.9,38.6
		c-1.5-0.3-3-0.5-4.4-0.7l0.2-1.5c1.5,0.2,3,0.5,4.5,0.8L165.9,38.6z M158.5,37.5c-1.5-0.2-3-0.4-4.5-0.5l0.1-1.5
		c1.5,0.1,3,0.3,4.5,0.5L158.5,37.5z M151,36.7c-1.5-0.1-3-0.2-4.5-0.2l0.1-1.5c1.5,0.1,3,0.1,4.5,0.3L151,36.7z"/>
	<path class="st0" d="M7.2,165.2l-1.5-0.1c0.1-1.5,0.1-3,0.3-4.5l1.5,0.1C7.4,162.2,7.3,163.7,7.2,165.2z M7.7,157.7l-1.5-0.1
		c0.1-1.5,0.3-3,0.5-4.5l1.5,0.2C8,154.7,7.9,156.2,7.7,157.7z M8.6,150.2L7.2,150c0.2-1.5,0.5-3,0.8-4.5l1.5,0.3
		C9.1,147.3,8.9,148.8,8.6,150.2z M10,142.8l-1.5-0.3c0.3-1.5,0.7-3,1-4.4l1.5,0.4C10.6,139.9,10.3,141.4,10,142.8z M11.7,135.5
		l-1.4-0.4c0.4-1.5,0.8-2.9,1.3-4.4l1.4,0.4C12.5,132.6,12.1,134.1,11.7,135.5z M13.9,128.3l-1.4-0.5c0.5-1.4,1-2.9,1.5-4.3l1.4,0.5
		C14.9,125.5,14.4,126.9,13.9,128.3z M16.5,121.2l-1.4-0.6c0.6-1.4,1.1-2.8,1.7-4.2l1.4,0.6C17.6,118.5,17,119.8,16.5,121.2z
		 M19.4,114.3l-1.4-0.6c0.6-1.4,1.3-2.8,2-4.1l1.3,0.7C20.7,111.6,20,113,19.4,114.3z M22.7,107.6l-1.3-0.7c0.7-1.3,1.4-2.7,2.2-4
		l1.3,0.7C24.2,105,23.4,106.3,22.7,107.6z M26.5,101.1l-1.3-0.8c0.8-1.3,1.6-2.6,2.4-3.9l1.3,0.8C28,98.5,27.2,99.8,26.5,101.1z
		 M30.5,94.8l-1.2-0.8c0.9-1.2,1.7-2.5,2.6-3.7l1.2,0.9C32.3,92.3,31.4,93.5,30.5,94.8z M34.9,88.7l-1.2-0.9
		c0.9-1.2,1.9-2.4,2.8-3.6l1.2,1C36.8,86.3,35.9,87.5,34.9,88.7z M39.7,82.9l-1.1-1c1-1.1,2-2.3,3-3.4l1.1,1
		C41.7,80.6,40.7,81.7,39.7,82.9z M44.8,77.3l-1.1-1c1.1-1.1,2.1-2.2,3.2-3.2l1,1.1C46.9,75.2,45.8,76.2,44.8,77.3z M50.1,72.1
		l-1-1.1c1.1-1,2.3-2.1,3.4-3l1,1.1C52.4,70,51.2,71,50.1,72.1z M55.8,67.1l-1-1.2c1.2-1,2.4-1.9,3.6-2.8l0.9,1.2
		C58.2,65.2,57,66.1,55.8,67.1z M61.7,62.5l-0.9-1.2c1.2-0.9,2.5-1.8,3.7-2.6l0.8,1.2C64.2,60.7,62.9,61.6,61.7,62.5z M67.9,58.2
		l-0.8-1.3c1.3-0.8,2.6-1.6,3.9-2.4l0.8,1.3C70.5,56.5,69.2,57.3,67.9,58.2z M74.3,54.2l-0.7-1.3c1.3-0.8,2.7-1.5,4-2.2l0.7,1.3
		C77,52.7,75.6,53.5,74.3,54.2z M81,50.6l-0.7-1.3c1.4-0.7,2.7-1.4,4.1-2l0.6,1.4C83.7,49.3,82.3,50,81,50.6z M87.8,47.4l-0.6-1.4
		c1.4-0.6,2.8-1.2,4.2-1.8l0.6,1.4C90.6,46.3,89.2,46.8,87.8,47.4z M94.8,44.6l-0.5-1.4c1.4-0.5,2.9-1,4.3-1.5l0.5,1.4
		C97.6,43.6,96.2,44.1,94.8,44.6z M102,42.2l-0.4-1.4c1.4-0.4,2.9-0.9,4.4-1.3l0.4,1.4C104.8,41.4,103.4,41.8,102,42.2z M109.2,40.2
		l-0.4-1.5c1.5-0.4,3-0.7,4.4-1l0.3,1.5C112.1,39.5,110.7,39.9,109.2,40.2z M116.6,38.6l-0.3-1.5c1.5-0.3,3-0.5,4.5-0.8l0.2,1.5
		C119.5,38.1,118,38.4,116.6,38.6z M124,37.5l-0.2-1.5c1.5-0.2,3-0.4,4.5-0.5l0.1,1.5C127,37.1,125.5,37.3,124,37.5z M131.5,36.7
		l-0.1-1.5c1.5-0.1,3-0.2,4.6-0.3l0.1,1.5C134.5,36.5,133,36.6,131.5,36.7z"/>
	<path class="st0" d="M135.9,306c-1.5-0.1-3-0.1-4.5-0.3l0.1-1.5c1.5,0.1,3,0.2,4.5,0.2L135.9,306z M128.3,305.5
		c-1.5-0.1-3-0.3-4.5-0.5l0.2-1.5c1.5,0.2,3,0.4,4.5,0.5L128.3,305.5z M120.8,304.6c-1.5-0.2-3-0.5-4.5-0.8l0.3-1.5
		c1.5,0.3,3,0.5,4.4,0.8L120.8,304.6z M113.3,303.2c-1.5-0.3-3-0.7-4.4-1l0.4-1.5c1.4,0.4,2.9,0.7,4.4,1L113.3,303.2z M105.9,301.5
		c-1.5-0.4-2.9-0.8-4.4-1.3l0.4-1.4c1.4,0.4,2.9,0.9,4.3,1.2L105.9,301.5z M98.6,299.3c-1.4-0.5-2.9-1-4.3-1.5l0.5-1.4
		c1.4,0.5,2.8,1,4.3,1.5L98.6,299.3z M91.4,296.7c-1.4-0.6-2.8-1.1-4.2-1.7l0.6-1.4c1.4,0.6,2.8,1.2,4.2,1.7L91.4,296.7z
		 M84.5,293.7c-1.4-0.6-2.7-1.3-4.1-2l0.7-1.3c1.3,0.7,2.7,1.3,4.1,2L84.5,293.7z M77.7,290.3c-1.3-0.7-2.7-1.5-4-2.2l0.7-1.3
		c1.3,0.7,2.6,1.5,3.9,2.2L77.7,290.3z M71.1,286.6c-1.3-0.8-2.6-1.6-3.9-2.4l0.8-1.3c1.2,0.8,2.5,1.6,3.8,2.4L71.1,286.6z
		 M64.7,282.4c-1.3-0.9-2.5-1.7-3.7-2.6l0.9-1.2c1.2,0.9,2.4,1.8,3.7,2.6L64.7,282.4z M58.5,278c-1.2-0.9-2.4-1.9-3.6-2.8l1-1.2
		c1.1,0.9,2.3,1.9,3.5,2.8L58.5,278z M52.7,273.2c-1.1-1-2.3-2-3.4-3l1-1.1c1.1,1,2.2,2,3.4,3L52.7,273.2z M47,268
		c-1.1-1.1-2.2-2.1-3.2-3.2l1.1-1c1,1.1,2.1,2.1,3.2,3.2L47,268z M41.7,262.6c-1-1.1-2.1-2.3-3-3.4l1.1-1c1,1.1,2,2.3,3,3.4
		L41.7,262.6z M36.7,256.9c-1-1.2-1.9-2.4-2.8-3.6l1.2-0.9c0.9,1.2,1.9,2.4,2.8,3.5L36.7,256.9z M32,250.9c-0.9-1.2-1.8-2.5-2.6-3.7
		l1.2-0.8c0.8,1.2,1.7,2.5,2.6,3.7L32,250.9z M27.7,244.6c-0.8-1.3-1.6-2.6-2.4-3.9l1.3-0.8c0.8,1.3,1.6,2.6,2.4,3.8L27.7,244.6z
		 M23.7,238.1c-0.8-1.3-1.5-2.7-2.2-4l1.3-0.7c0.7,1.3,1.4,2.6,2.2,3.9L23.7,238.1z M20.1,231.4c-0.7-1.4-1.4-2.8-2-4.1l1.4-0.6
		c0.6,1.3,1.3,2.7,2,4.1L20.1,231.4z M16.8,224.5c-0.6-1.4-1.2-2.8-1.8-4.2l1.4-0.6c0.6,1.4,1.1,2.8,1.7,4.2L16.8,224.5z M14,217.5
		c-0.5-1.4-1-2.9-1.5-4.3l1.4-0.5c0.5,1.4,1,2.9,1.5,4.3L14,217.5z M11.5,210.2c-0.4-1.4-0.9-2.9-1.3-4.4l1.4-0.4
		c0.4,1.4,0.8,2.9,1.2,4.3L11.5,210.2z M9.5,202.9c-0.4-1.5-0.7-3-1-4.4l1.5-0.3c0.3,1.5,0.6,2.9,1,4.4L9.5,202.9z M7.9,195.5
		c-0.3-1.5-0.5-3-0.8-4.5l1.5-0.2c0.2,1.5,0.5,3,0.7,4.4L7.9,195.5z M6.7,187.9c-0.2-1.5-0.4-3-0.5-4.5l1.5-0.1
		c0.1,1.5,0.3,3,0.5,4.5L6.7,187.9z M6,180.4c-0.1-1.5-0.2-3-0.3-4.5l1.5-0.1c0.1,1.5,0.1,3,0.2,4.5L6,180.4z"/>
	<path class="st0" d="M141.3,306.1c-0.8,0-1.5,0-2.3,0l0-1.5c1.5,0,3,0,4.5,0l0,1.5C142.8,306.1,142,306.1,141.3,306.1z M5.6,172.8
		c0-0.8,0-1.5,0-2.3s0-1.5,0-2.3l1.5,0c0,0.8,0,1.5,0,2.3s0,1.5,0,2.3L5.6,172.8z M276.9,172.8l-1.5,0c0-0.8,0-1.5,0-2.3
		s0-1.5,0-2.3l1.5,0c0,0.8,0,1.5,0,2.3S276.9,172,276.9,172.8z M143.5,36.4c-1.5,0-3,0-4.5,0l0-1.5c1.5,0,3,0,4.6,0L143.5,36.4z"/>
	<path class="st0" d="M146.7,272.1l-0.1-1.5c1.5-0.1,3-0.2,4.5-0.3l0.1,1.5C149.7,272,148.2,272.1,146.7,272.1z M154.3,271.5
		l-0.2-1.5c1.5-0.2,3-0.4,4.5-0.6l0.2,1.5C157.4,271.2,155.9,271.4,154.3,271.5z M162,270.5l-0.3-1.5c1.5-0.3,3-0.6,4.5-0.9l0.3,1.5
		C165,269.9,163.5,270.2,162,270.5z M169.5,268.8l-0.4-1.5c1.5-0.4,2.9-0.8,4.4-1.2l0.4,1.4C172.5,268.1,171,268.5,169.5,268.8z
		 M176.9,266.7l-0.5-1.4c1.4-0.5,2.9-1,4.3-1.5l0.5,1.4C179.8,265.8,178.4,266.3,176.9,266.7z M184.2,264.1l-0.6-1.4
		c1.4-0.6,2.8-1.2,4.2-1.8l0.6,1.4C187,262.9,185.6,263.5,184.2,264.1z M191.2,261l-0.7-1.3c1.4-0.7,2.7-1.4,4-2.1l0.7,1.3
		C194,259.6,192.6,260.3,191.2,261z M198,257.4l-0.8-1.3c1.3-0.8,2.6-1.6,3.9-2.4l0.8,1.3C200.7,255.8,199.4,256.6,198,257.4z
		 M204.5,253.2l-0.8-1.2c1.2-0.9,2.5-1.8,3.7-2.7l0.9,1.2C207.1,251.4,205.8,252.4,204.5,253.2z M210.7,248.6l-0.9-1.2
		c1.2-0.9,2.3-1.9,3.5-2.9l1,1.1C213.1,246.6,211.9,247.7,210.7,248.6z M216.5,243.5l-1-1.1c1.1-1,2.2-2.1,3.2-3.2l1.1,1
		C218.7,241.4,217.6,242.5,216.5,243.5z M221.9,237.9l-1.1-1c1-1.1,2-2.3,2.9-3.5l1.2,0.9C223.9,235.6,222.9,236.8,221.9,237.9z
		 M226.7,231.9l-1.2-0.9c0.9-1.2,1.8-2.5,2.6-3.7l1.3,0.8C228.5,229.4,227.6,230.7,226.7,231.9z M231,225.5l-1.3-0.8
		c0.8-1.3,1.5-2.6,2.2-4l1.3,0.7C232.6,222.8,231.8,224.2,231,225.5z M234.7,218.7l-1.4-0.6c0.6-1.4,1.3-2.8,1.8-4.2l1.4,0.6
		C235.9,215.9,235.3,217.3,234.7,218.7z M237.6,211.5l-1.4-0.5c0.5-1.4,1-2.9,1.4-4.3l1.4,0.4C238.6,208.6,238.1,210.1,237.6,211.5z
		 M239.9,204.1l-1.5-0.4c0.4-1.5,0.7-2.9,0.9-4.4l1.5,0.3C240.5,201.1,240.2,202.7,239.9,204.1z M241.3,196.5l-1.5-0.2
		c0.2-1.5,0.4-3,0.5-4.5l1.5,0.1C241.7,193.5,241.5,195,241.3,196.5z"/>
	<path class="st0" d="M240.3,181.2c-0.1-1.5-0.3-3-0.5-4.5l1.5-0.2c0.2,1.5,0.4,3.1,0.5,4.6L240.3,181.2z M239.3,173.7
		c-0.3-1.5-0.6-3-0.9-4.4l1.5-0.4c0.4,1.5,0.7,3,1,4.5L239.3,173.7z M237.6,166.3c-0.4-1.4-0.9-2.9-1.4-4.3l1.4-0.5
		c0.5,1.4,1,2.9,1.4,4.4L237.6,166.3z M235.1,159.1c-0.6-1.4-1.2-2.8-1.8-4.1l1.4-0.6c0.7,1.4,1.3,2.8,1.9,4.2L235.1,159.1z
		 M231.9,152.3c-0.7-1.3-1.4-2.7-2.2-3.9l1.3-0.8c0.8,1.3,1.6,2.7,2.3,4L231.9,152.3z M228.1,145.7c-0.8-1.3-1.7-2.5-2.6-3.7
		l1.2-0.9c0.9,1.2,1.8,2.5,2.6,3.8L228.1,145.7z M223.7,139.6c-0.9-1.2-1.9-2.4-2.9-3.5l1.1-1c1,1.2,2,2.3,3,3.5L223.7,139.6z
		 M218.7,133.8c-1-1.1-2.1-2.2-3.2-3.2l1-1.1c1.1,1.1,2.2,2.2,3.3,3.3L218.7,133.8z M213.3,128.5c-1.1-1-2.3-2-3.5-2.9l0.9-1.2
		c1.2,1,2.4,2,3.5,3L213.3,128.5z M207.4,123.7c-1.2-0.9-2.4-1.8-3.7-2.7l0.9-1.2c1.3,0.9,2.5,1.8,3.7,2.7L207.4,123.7z
		 M201.2,119.4c-1.3-0.8-2.6-1.6-3.9-2.4l0.8-1.3c1.3,0.8,2.7,1.6,3.9,2.4L201.2,119.4z M194.7,115.5c-1.3-0.7-2.7-1.4-4-2.1
		l0.7-1.3c1.4,0.7,2.8,1.4,4.1,2.1L194.7,115.5z M187.8,112.1c-1.4-0.6-2.8-1.2-4.2-1.8l0.6-1.4c1.4,0.6,2.8,1.2,4.2,1.8
		L187.8,112.1z M180.8,109.2c-1.4-0.5-2.9-1-4.3-1.5l0.5-1.4c1.5,0.5,2.9,1,4.4,1.5L180.8,109.2z M173.6,106.8
		c-1.5-0.4-2.9-0.8-4.4-1.2l0.4-1.5c1.5,0.4,3,0.8,4.5,1.2L173.6,106.8z M166.2,104.9c-1.5-0.3-3-0.6-4.5-0.9l0.3-1.5
		c1.5,0.3,3,0.6,4.5,0.9L166.2,104.9z M158.7,103.6c-1.5-0.2-3-0.4-4.5-0.6l0.2-1.5c1.5,0.2,3.1,0.4,4.6,0.6L158.7,103.6z
		 M151.2,102.7c-1.5-0.1-3-0.2-4.5-0.3l0.1-1.5c1.5,0.1,3.1,0.2,4.6,0.3L151.2,102.7z"/>
	<path class="st0" d="M42.2,181.2l-1.5-0.1c0.1-1.5,0.3-3.1,0.5-4.6l1.5,0.2C42.5,178.2,42.3,179.7,42.2,181.2z M43.2,173.7
		l-1.5-0.3c0.3-1.5,0.6-3,1-4.5l1.5,0.4C43.7,170.7,43.4,172.2,43.2,173.7z M44.9,166.3l-1.4-0.4c0.4-1.5,0.9-2.9,1.4-4.4l1.4,0.5
		C45.8,163.4,45.3,164.9,44.9,166.3z M47.4,159.1l-1.4-0.6c0.6-1.4,1.2-2.8,1.9-4.2l1.4,0.6C48.5,156.4,47.9,157.8,47.4,159.1z
		 M50.6,152.3l-1.3-0.7c0.7-1.4,1.5-2.7,2.3-4l1.3,0.8C52,149.6,51.3,150.9,50.6,152.3z M54.4,145.7l-1.3-0.8
		c0.8-1.3,1.7-2.6,2.6-3.8L57,142C56.1,143.2,55.2,144.5,54.4,145.7z M58.8,139.5l-1.2-0.9c0.9-1.2,1.9-2.4,3-3.5l1.1,1
		C60.8,137.2,59.8,138.4,58.8,139.5z M63.8,133.8l-1.1-1c1-1.1,2.1-2.2,3.3-3.3l1,1.1C65.9,131.6,64.9,132.7,63.8,133.8z
		 M69.3,128.5l-1-1.1c1.1-1,2.3-2,3.5-3l0.9,1.2C71.5,126.5,70.4,127.5,69.3,128.5z M75.1,123.7l-0.9-1.2c1.2-0.9,2.5-1.8,3.7-2.7
		l0.9,1.2C77.6,121.9,76.3,122.8,75.1,123.7z M81.4,119.3l-0.8-1.3c1.3-0.8,2.6-1.6,3.9-2.4l0.8,1.3
		C83.9,117.7,82.6,118.5,81.4,119.3z M87.9,115.5l-0.7-1.3c1.3-0.7,2.7-1.4,4.1-2.1l0.7,1.3C90.6,114,89.2,114.7,87.9,115.5z
		 M94.7,112.1l-0.6-1.4c1.4-0.6,2.8-1.2,4.2-1.8l0.6,1.4C97.5,110.9,96.1,111.5,94.7,112.1z M101.7,109.2l-0.5-1.4
		c1.4-0.5,2.9-1,4.4-1.5l0.5,1.4C104.6,108.2,103.2,108.7,101.7,109.2z M109,106.8l-0.4-1.4c1.5-0.4,3-0.8,4.5-1.2l0.4,1.5
		C111.9,106,110.4,106.4,109,106.8z M116.3,104.9l-0.3-1.5c1.5-0.3,3-0.6,4.5-0.9l0.3,1.5C119.3,104.3,117.8,104.6,116.3,104.9z
		 M123.8,103.5l-0.2-1.5c1.5-0.2,3.1-0.4,4.6-0.6l0.2,1.5C126.8,103.1,125.3,103.3,123.8,103.5z M131.4,102.7l-0.1-1.5
		c1.5-0.1,3.1-0.2,4.6-0.3l0.1,1.5C134.4,102.4,132.9,102.5,131.4,102.7z"/>
	<path class="st0" d="M135.8,272.1c-1.5-0.1-3.1-0.2-4.6-0.3l0.1-1.5c1.5,0.1,3,0.2,4.5,0.3L135.8,272.1z M128.1,271.5
		c-1.5-0.2-3.1-0.4-4.6-0.6l0.2-1.5c1.5,0.2,3,0.4,4.5,0.6L128.1,271.5z M120.5,270.4c-1.5-0.3-3-0.6-4.5-0.9l0.3-1.5
		c1.5,0.3,3,0.6,4.5,0.9L120.5,270.4z M112.9,268.8c-1.5-0.4-3-0.8-4.4-1.2l0.4-1.4c1.4,0.4,2.9,0.8,4.4,1.2L112.9,268.8z
		 M105.5,266.7c-1.5-0.5-2.9-1-4.4-1.5l0.5-1.4c1.4,0.5,2.9,1,4.3,1.5L105.5,266.7z M98.3,264.1c-1.4-0.6-2.8-1.2-4.2-1.8l0.6-1.4
		c1.4,0.6,2.8,1.2,4.2,1.8L98.3,264.1z M91.2,261c-1.4-0.7-2.8-1.4-4.1-2.1l0.7-1.3c1.3,0.7,2.7,1.4,4,2.1L91.2,261z M84.4,257.3
		c-1.3-0.8-2.7-1.6-3.9-2.4l0.8-1.3c1.3,0.8,2.6,1.6,3.9,2.4L84.4,257.3z M77.9,253.2c-1.3-0.9-2.5-1.8-3.7-2.7l0.9-1.2
		c1.2,0.9,2.4,1.8,3.7,2.7L77.9,253.2z M71.7,248.6c-1.2-1-2.4-2-3.5-3l1-1.1c1.1,1,2.3,2,3.5,2.9L71.7,248.6z M65.9,243.5
		c-1.1-1.1-2.2-2.2-3.3-3.3l1.1-1c1,1.1,2.1,2.2,3.2,3.2L65.9,243.5z M60.6,237.9c-1-1.2-2-2.3-3-3.5l1.2-0.9
		c0.9,1.2,1.9,2.4,2.9,3.5L60.6,237.9z M55.8,231.9c-0.9-1.2-1.8-2.5-2.6-3.8l1.3-0.8c0.8,1.2,1.7,2.5,2.6,3.7L55.8,231.9z
		 M51.5,225.5c-0.8-1.3-1.6-2.7-2.3-4l1.3-0.7c0.7,1.3,1.4,2.7,2.2,3.9L51.5,225.5z M47.8,218.7c-0.7-1.4-1.3-2.8-1.9-4.2l1.4-0.6
		c0.6,1.4,1.2,2.8,1.8,4.1L47.8,218.7z M44.9,211.5c-0.5-1.5-1-2.9-1.4-4.4l1.4-0.4c0.4,1.4,0.9,2.9,1.4,4.3L44.9,211.5z
		 M42.6,204.1c-0.4-1.5-0.7-3-1-4.5l1.5-0.3c0.3,1.5,0.6,3,0.9,4.4L42.6,204.1z M41.2,196.5c-0.2-1.5-0.4-3.1-0.5-4.6l1.5-0.1
		c0.1,1.5,0.3,3,0.5,4.5L41.2,196.5z"/>
	<path class="st0" d="M141.3,272.3c-0.8,0-1.5,0-2.3,0l0-1.5c1.5,0,3,0,4.6,0l0,1.5C142.8,272.3,142,272.3,141.3,272.3z M242,188.8
		l-1.5,0c0-0.8,0-1.5,0-2.3s0-1.5,0-2.3l1.5,0c0,0.8,0,1.5,0,2.3S242,188.1,242,188.8z M40.6,188.8c0-0.8,0-1.5,0-2.3s0-1.5,0-2.3
		l1.5,0c0,0.8,0,1.5,0,2.3s0,1.5,0,2.3L40.6,188.8z M143.5,102.3c-1.5,0-3,0-4.5,0l0-1.5c1.5,0,3.1,0,4.6,0L143.5,102.3z"/>
	<path class="st0" d="M146.4,234.5l-0.1-1.5c1.5-0.1,2.9-0.2,4.4-0.4l0.2,1.5C149.4,234.3,147.9,234.4,146.4,234.5z M153.8,233.8
		l-0.2-1.5c1.4-0.2,2.9-0.5,4.3-0.7l0.3,1.5C156.7,233.3,155.3,233.6,153.8,233.8z M161.1,232.4l-0.3-1.5c1.4-0.3,2.8-0.7,4.2-1.1
		l0.4,1.4C164,231.7,162.5,232.1,161.1,232.4z M168.2,230.3l-0.5-1.4c1.4-0.5,2.8-1,4.1-1.5l0.6,1.4
		C171,229.3,169.6,229.9,168.2,230.3z M175.1,227.6l-0.6-1.4c1.3-0.6,2.6-1.2,3.9-1.9l0.7,1.3C177.8,226.4,176.5,227,175.1,227.6z
		 M181.7,224.2l-0.8-1.3c1.3-0.7,2.5-1.5,3.7-2.4l0.9,1.2C184.3,222.6,183,223.4,181.7,224.2z M187.9,220.1l-0.9-1.2
		c1.2-0.9,2.3-1.8,3.4-2.8l1,1.1C190.2,218.2,189.1,219.1,187.9,220.1z M193.5,215.2l-1.1-1.1c1-1,2-2.1,2.9-3.2l1.2,1
		C195.6,213,194.5,214.1,193.5,215.2z M198.3,209.5l-1.2-0.9c0.9-1.2,1.7-2.4,2.4-3.6l1.3,0.8C200.1,207,199.2,208.3,198.3,209.5z
		 M202.2,203.1l-1.3-0.7c0.6-1.3,1.2-2.6,1.7-4l1.4,0.5C203.5,200.4,202.9,201.8,202.2,203.1z M204.9,196.2l-1.4-0.4
		c0.4-1.4,0.7-2.8,0.9-4.2l1.5,0.2C205.6,193.2,205.3,194.7,204.9,196.2z"/>
	<path class="st0" d="M204.3,181.5c-0.2-1.4-0.5-2.8-0.9-4.2l1.4-0.4c0.4,1.5,0.7,2.9,0.9,4.4L204.3,181.5z M202.6,174.5
		c-0.5-1.3-1.1-2.7-1.7-4l1.3-0.7c0.7,1.4,1.3,2.7,1.8,4.1L202.6,174.5z M199.5,168c-0.7-1.2-1.5-2.5-2.4-3.6l1.2-0.9
		c0.9,1.2,1.7,2.5,2.5,3.8L199.5,168z M195.4,162.1c-0.9-1.1-1.9-2.2-2.9-3.2l1.1-1.1c1.1,1.1,2.1,2.2,3,3.3L195.4,162.1z
		 M190.3,156.9c-1.1-1-2.2-1.9-3.4-2.8l0.9-1.2c1.2,0.9,2.4,1.9,3.5,2.9L190.3,156.9z M184.6,152.5c-1.2-0.8-2.4-1.6-3.7-2.4
		l0.8-1.3c1.3,0.8,2.6,1.6,3.8,2.4L184.6,152.5z M178.4,148.7c-1.3-0.7-2.6-1.3-3.9-1.9l0.6-1.4c1.4,0.6,2.7,1.3,4,2L178.4,148.7z
		 M171.8,145.6c-1.3-0.5-2.7-1.1-4.1-1.5l0.5-1.4c1.4,0.5,2.8,1,4.2,1.6L171.8,145.6z M165,143.2c-1.4-0.4-2.8-0.8-4.2-1.1l0.3-1.5
		c1.4,0.3,2.9,0.7,4.3,1.2L165,143.2z M157.9,141.5c-1.4-0.3-2.9-0.5-4.3-0.7l0.2-1.5c1.5,0.2,3,0.5,4.4,0.8L157.9,141.5z
		 M150.7,140.4c-1.4-0.2-2.9-0.3-4.4-0.4l0.1-1.5c1.5,0.1,3,0.2,4.4,0.4L150.7,140.4z"/>
	<path class="st0" d="M78.2,181.5l-1.5-0.2c0.2-1.5,0.5-3,0.9-4.4l1.4,0.4C78.7,178.6,78.4,180.1,78.2,181.5z M79.9,174.5l-1.4-0.5
		c0.5-1.4,1.1-2.8,1.8-4.1l1.3,0.7C81,171.8,80.4,173.2,79.9,174.5z M83,168l-1.3-0.8c0.7-1.3,1.6-2.5,2.5-3.8l1.2,0.9
		C84.5,165.6,83.7,166.8,83,168z M87.2,162.1l-1.2-1c0.9-1.1,2-2.2,3-3.3l1.1,1.1C89.1,160,88.1,161,87.2,162.1z M92.2,156.9l-1-1.1
		c1.1-1,2.3-1.9,3.5-2.9l0.9,1.2C94.4,155,93.2,156,92.2,156.9z M97.9,152.5l-0.9-1.2c1.2-0.8,2.5-1.6,3.8-2.4l0.8,1.3
		C100.3,150.8,99.1,151.6,97.9,152.5z M104.1,148.7l-0.7-1.3c1.3-0.7,2.6-1.4,4-2l0.6,1.4C106.7,147.4,105.4,148,104.1,148.7z
		 M110.7,145.6l-0.6-1.4c1.4-0.6,2.8-1.1,4.2-1.6l0.5,1.4C113.4,144.6,112,145.1,110.7,145.6z M117.5,143.2l-0.4-1.4
		c1.4-0.4,2.9-0.8,4.3-1.2l0.3,1.5C120.3,142.4,118.9,142.8,117.5,143.2z M124.6,141.5l-0.3-1.5c1.4-0.3,2.9-0.5,4.4-0.8l0.2,1.5
		C127.5,140.9,126,141.2,124.6,141.5z M131.8,140.4l-0.2-1.5c1.5-0.2,3-0.3,4.4-0.4l0.1,1.5C134.7,140.1,133.2,140.2,131.8,140.4z"
		/>
	<path class="st0" d="M136.1,234.5c-1.5-0.1-3-0.2-4.4-0.4l0.2-1.5c1.4,0.2,2.9,0.3,4.4,0.4L136.1,234.5z M128.7,233.8
		c-1.5-0.2-3-0.5-4.4-0.8l0.3-1.5c1.4,0.3,2.9,0.5,4.3,0.7L128.7,233.8z M121.4,232.4c-1.4-0.3-2.9-0.7-4.3-1.2l0.4-1.4
		c1.4,0.4,2.8,0.8,4.2,1.1L121.4,232.4z M114.3,230.3c-1.4-0.5-2.8-1-4.2-1.6l0.6-1.4c1.3,0.5,2.7,1.1,4.1,1.5L114.3,230.3z
		 M107.4,227.6c-1.4-0.6-2.7-1.3-4-2l0.7-1.3c1.3,0.7,2.6,1.3,3.9,1.9L107.4,227.6z M100.8,224.2c-1.3-0.8-2.6-1.6-3.8-2.4l0.9-1.2
		c1.2,0.8,2.4,1.6,3.7,2.4L100.8,224.2z M94.6,220c-1.2-0.9-2.4-1.9-3.5-2.9l1-1.1c1.1,1,2.2,1.9,3.4,2.8L94.6,220z M89,215.2
		c-1.1-1.1-2.1-2.2-3-3.3l1.2-1c0.9,1.1,1.9,2.2,2.9,3.2L89,215.2z M84.2,209.5c-0.9-1.2-1.7-2.5-2.5-3.8L83,205
		c0.7,1.2,1.5,2.4,2.4,3.6L84.2,209.5z M80.3,203.1c-0.7-1.4-1.3-2.8-1.8-4.1l1.4-0.5c0.5,1.3,1.1,2.7,1.7,4L80.3,203.1z
		 M77.6,196.1c-0.4-1.5-0.7-2.9-0.9-4.4l1.5-0.2c0.2,1.4,0.5,2.8,0.9,4.2L77.6,196.1z"/>
	<path class="st0" d="M141.3,234.7c-0.7,0-1.5,0-2.2,0l0-1.5c1.5,0,2.9,0,4.4,0l0,1.5C142.7,234.7,142,234.7,141.3,234.7z
		 M206.1,188.8l-1.5-0.1c0-0.7,0.1-1.4,0.1-2.2s0-1.4-0.1-2.2l1.5-0.1c0,0.8,0.1,1.5,0.1,2.3C206.2,187.3,206.2,188,206.1,188.8z
		 M76.4,188.8c0-0.7-0.1-1.5-0.1-2.3s0-1.5,0.1-2.3l1.5,0.1c0,0.7-0.1,1.4-0.1,2.2s0,1.4,0.1,2.2L76.4,188.8z M143.4,139.9
		c-1.5,0-2.9,0-4.4,0l0-1.5c1.5,0,3,0,4.5,0L143.4,139.9z"/>
	<path class="st0" d="M161.2,171.1c-0.3,0.1-0.6,0.2-0.8,0.2c-0.2,0-0.3-0.1-0.4-0.2c-0.1-0.1-0.1-0.3-0.1-0.5v-2.4h1.5v-0.9h-1.5
		v-1.5h-1.3v1.5h-0.8l0,0.9h0.8v2.6c0,0.5,0.1,0.9,0.4,1.2c0.3,0.3,0.7,0.4,1.1,0.4c0.5,0,0.9-0.1,1.3-0.4L161.2,171.1z
		 M154.2,171.5c-0.3,0-0.5-0.1-0.7-0.2s-0.3-0.3-0.3-0.5c0-0.2,0.1-0.4,0.2-0.5c0.2-0.1,0.4-0.2,0.8-0.2h1.3v0.5
		c0,0.3-0.2,0.5-0.4,0.7C154.9,171.4,154.6,171.5,154.2,171.5 M156.9,172.4l0-3.5c0-0.6-0.2-1.1-0.6-1.4c-0.4-0.3-0.9-0.5-1.6-0.5
		c-0.5,0-0.9,0.1-1.2,0.2c-0.3,0.1-0.7,0.3-1.1,0.5l0.5,0.9c0.6-0.3,1.1-0.5,1.6-0.5c0.4,0,0.7,0.1,0.9,0.3c0.2,0.2,0.3,0.4,0.3,0.7
		v0.1h-1.6c-0.6,0-1.1,0.2-1.5,0.4c-0.4,0.3-0.5,0.7-0.5,1.2c0,0.3,0.1,0.6,0.2,0.8c0.2,0.3,0.4,0.5,0.7,0.6c0.3,0.1,0.6,0.2,1,0.2
		c0.4,0,0.7-0.1,1-0.2c0.3-0.1,0.5-0.3,0.7-0.5v0.6H156.9z M148.3,171.5c-0.3,0-0.5-0.1-0.7-0.2c-0.2-0.1-0.3-0.3-0.3-0.5
		c0-0.2,0.1-0.4,0.2-0.5c0.2-0.1,0.4-0.2,0.8-0.2h1.4v0.5c0,0.3-0.2,0.5-0.4,0.7C149,171.4,148.7,171.5,148.3,171.5 M151,172.4
		l0-3.5c0-0.6-0.2-1.1-0.6-1.4c-0.4-0.3-0.9-0.5-1.6-0.5c-0.5,0-0.9,0.1-1.2,0.2c-0.3,0.1-0.7,0.3-1.1,0.5l0.5,0.9
		c0.6-0.3,1.1-0.5,1.6-0.5c0.4,0,0.7,0.1,0.9,0.3c0.2,0.2,0.3,0.4,0.3,0.7v0.1h-1.6c-0.6,0-1.1,0.2-1.5,0.4
		c-0.4,0.3-0.5,0.7-0.5,1.2c0,0.3,0.1,0.6,0.2,0.8c0.2,0.3,0.4,0.5,0.7,0.6c0.3,0.1,0.6,0.2,1,0.2c0.4,0,0.7-0.1,1-0.2
		c0.3-0.1,0.5-0.3,0.7-0.5v0.6H151z M144.3,164.8c-0.2,0-0.4,0.1-0.5,0.2s-0.2,0.3-0.2,0.6c0,0.2,0.1,0.4,0.2,0.6s0.3,0.2,0.5,0.2
		c0.2,0,0.4-0.1,0.5-0.2s0.2-0.3,0.2-0.6c0-0.2-0.1-0.4-0.2-0.6S144.5,164.8,144.3,164.8 M143.7,172.4h1.3v-5.3h-1.3V172.4z
		 M139.4,171.1c-0.4,0-0.8-0.1-1-0.4c-0.3-0.3-0.4-0.7-0.4-1.1c0-0.4,0.1-0.8,0.4-1.1c0.3-0.3,0.6-0.4,1-0.4s0.8,0.1,1,0.4
		c0.3,0.3,0.4,0.7,0.4,1.1s-0.1,0.8-0.4,1.1C140.2,171,139.8,171.1,139.4,171.1 M140.8,167.1v0.8c-0.2-0.3-0.4-0.5-0.7-0.6
		c-0.3-0.1-0.6-0.2-1-0.2c-0.5,0-0.9,0.1-1.2,0.3c-0.4,0.2-0.6,0.5-0.8,0.9c-0.2,0.4-0.3,0.8-0.3,1.3c0,0.5,0.1,1,0.3,1.3
		c0.2,0.4,0.5,0.7,0.8,0.9c0.4,0.2,0.8,0.3,1.2,0.3c0.4,0,0.7-0.1,1-0.2c0.3-0.1,0.5-0.4,0.7-0.6v0.6c0,0.4-0.1,0.8-0.4,1
		c-0.3,0.2-0.7,0.4-1.1,0.4c-0.6,0-1.2-0.2-1.7-0.6l-0.5,0.9c0.7,0.5,1.4,0.7,2.3,0.7c0.6,0,1.1-0.1,1.5-0.3c0.4-0.2,0.8-0.5,1-0.9
		c0.2-0.4,0.3-0.8,0.3-1.3v-4.8H140.8z M133.1,171.5c-0.3,0-0.5-0.1-0.7-0.2s-0.3-0.3-0.3-0.5c0-0.2,0.1-0.4,0.2-0.5
		c0.2-0.1,0.4-0.2,0.8-0.2h1.4v0.5c0,0.3-0.2,0.5-0.5,0.7C133.8,171.4,133.5,171.5,133.1,171.5 M135.8,172.4l0-3.5
		c0-0.6-0.2-1.1-0.6-1.4c-0.4-0.3-0.9-0.5-1.6-0.5c-0.5,0-0.9,0.1-1.2,0.2c-0.3,0.1-0.7,0.3-1.1,0.5l0.5,0.9
		c0.6-0.3,1.1-0.5,1.6-0.5c0.4,0,0.7,0.1,0.9,0.3c0.2,0.2,0.3,0.4,0.3,0.7v0.1h-1.6c-0.6,0-1.1,0.2-1.5,0.4
		c-0.4,0.3-0.5,0.7-0.5,1.2c0,0.3,0.1,0.6,0.2,0.8c0.2,0.3,0.4,0.5,0.7,0.6c0.3,0.1,0.6,0.2,1,0.2c0.4,0,0.7-0.1,1-0.2
		c0.3-0.1,0.5-0.3,0.7-0.5v0.6H135.8z M128.4,172.4h1.3V165h-1.3V172.4z M124.4,169.2H123v-2.6h1.5c0.5,0,0.9,0.1,1.2,0.3
		c0.3,0.2,0.4,0.5,0.4,1c0,0.4-0.1,0.8-0.4,1C125.3,169.1,124.9,169.2,124.4,169.2 M124.5,165.4h-2.9v7h1.3v-2.1h1.5
		c0.9,0,1.6-0.2,2-0.7c0.5-0.4,0.7-1.1,0.7-1.9c0-0.8-0.2-1.4-0.7-1.8C126.1,165.6,125.4,165.4,124.5,165.4"/>
	<path class="st0" d="M154.4,121.3c0.1-0.4,0.2-0.7,0.5-0.9c0.3-0.2,0.6-0.3,1-0.3c0.4,0,0.7,0.1,1,0.3c0.2,0.2,0.4,0.5,0.4,0.9
		H154.4z M155.8,119c-0.5,0-1,0.1-1.4,0.3c-0.4,0.2-0.7,0.6-1,1c-0.2,0.4-0.3,0.9-0.3,1.4c0,0.5,0.1,1,0.3,1.4c0.2,0.4,0.5,0.7,1,1
		c0.4,0.2,0.9,0.3,1.4,0.3c0.5,0,0.9-0.1,1.3-0.2c0.4-0.2,0.7-0.4,1-0.7l-0.7-0.7c-0.2,0.2-0.4,0.3-0.7,0.4
		c-0.2,0.1-0.5,0.2-0.8,0.2c-0.4,0-0.7-0.1-1-0.3c-0.3-0.2-0.4-0.5-0.5-0.9h3.9c0-0.1,0-0.2,0-0.4c0-0.9-0.2-1.6-0.6-2
		C157.3,119.3,156.7,119,155.8,119 M149.1,123.4c-0.4,0-0.8-0.2-1.1-0.5c-0.3-0.3-0.4-0.7-0.4-1.2c0-0.5,0.1-0.9,0.4-1.2
		c0.3-0.3,0.6-0.5,1.1-0.5c0.4,0,0.8,0.2,1.1,0.5c0.3,0.3,0.4,0.7,0.4,1.2c0,0.5-0.1,0.9-0.4,1.2
		C149.9,123.2,149.5,123.4,149.1,123.4 M150.6,117v3c-0.2-0.3-0.5-0.5-0.8-0.7c-0.3-0.2-0.7-0.2-1.1-0.2c-0.5,0-0.9,0.1-1.3,0.3
		c-0.4,0.2-0.7,0.5-0.9,1c-0.2,0.4-0.3,0.9-0.3,1.4c0,0.5,0.1,1,0.3,1.4c0.2,0.4,0.5,0.7,0.9,1c0.4,0.2,0.8,0.3,1.3,0.3
		c0.4,0,0.8-0.1,1.1-0.2c0.3-0.2,0.6-0.4,0.7-0.7v0.9h1.3V117H150.6z M143.8,119.1v2.6c0,0.4-0.1,0.8-0.4,1.1
		c-0.2,0.3-0.6,0.4-1,0.4c-0.4,0-0.6-0.1-0.8-0.3c-0.2-0.2-0.3-0.5-0.3-0.9v-3H140v3.3c0,0.6,0.2,1.1,0.5,1.5
		c0.3,0.4,0.8,0.6,1.4,0.6c0.9,0,1.5-0.3,1.9-1v1h1.3v-5.3H143.8z M136,123.5c-0.3,0-0.5-0.1-0.7-0.2s-0.3-0.3-0.3-0.5
		c0-0.2,0.1-0.4,0.2-0.5c0.2-0.1,0.4-0.2,0.8-0.2h1.3v0.5c0,0.3-0.2,0.5-0.4,0.7S136.4,123.5,136,123.5 M138.7,124.4l0-3.5
		c0-0.6-0.2-1.1-0.6-1.4c-0.4-0.3-0.9-0.5-1.6-0.5c-0.5,0-0.9,0.1-1.2,0.2s-0.7,0.3-1.1,0.5l0.5,0.9c0.6-0.3,1.1-0.5,1.6-0.5
		c0.4,0,0.7,0.1,0.9,0.3s0.3,0.4,0.3,0.7v0.1h-1.6c-0.6,0-1.1,0.2-1.5,0.4c-0.4,0.3-0.5,0.7-0.5,1.2c0,0.3,0.1,0.6,0.2,0.8
		c0.2,0.3,0.4,0.5,0.7,0.6c0.3,0.1,0.6,0.2,1,0.2c0.4,0,0.7-0.1,1-0.2s0.5-0.3,0.7-0.5v0.6H138.7z M131.8,120.1v-1h-1.3v5.3h1.3
		v-2.6c0-0.5,0.2-0.9,0.5-1.2c0.3-0.3,0.8-0.4,1.3-0.4V119c-0.4,0-0.8,0.1-1.1,0.3C132.2,119.5,131.9,119.8,131.8,120.1
		 M124.7,124.4h1.3v-2.8h3.2v-1.2H126v-1.9h3.5l0-1.2h-4.8V124.4z"/>
	<path class="st0" d="M183.7,75.4c-0.4,0-0.8-0.2-1.1-0.5s-0.4-0.7-0.4-1.2c0-0.5,0.1-0.9,0.4-1.2c0.3-0.3,0.6-0.5,1.1-0.5
		c0.4,0,0.8,0.2,1.1,0.5c0.3,0.3,0.4,0.7,0.4,1.2c0,0.5-0.1,0.9-0.4,1.2C184.5,75.2,184.1,75.4,183.7,75.4 M185.2,69v3
		c-0.2-0.3-0.5-0.5-0.8-0.7c-0.3-0.2-0.7-0.2-1.1-0.2c-0.5,0-0.9,0.1-1.3,0.3c-0.4,0.2-0.7,0.5-0.9,1s-0.3,0.9-0.3,1.4
		c0,0.5,0.1,1,0.3,1.4c0.2,0.4,0.5,0.7,0.9,1c0.4,0.2,0.8,0.3,1.3,0.3c0.4,0,0.8-0.1,1.1-0.2c0.3-0.2,0.6-0.4,0.7-0.7v0.9h1.3V69
		H185.2z M179.1,68.8c-0.2,0-0.4,0.1-0.5,0.2s-0.2,0.3-0.2,0.6c0,0.2,0.1,0.4,0.2,0.6s0.3,0.2,0.5,0.2s0.4-0.1,0.5-0.2
		c0.1-0.1,0.2-0.3,0.2-0.6c0-0.2-0.1-0.4-0.2-0.6C179.5,68.8,179.3,68.8,179.1,68.8 M178.4,76.4h1.3v-5.4h-1.3V76.4z M173.3,73.3
		c0.1-0.4,0.2-0.7,0.5-0.9c0.3-0.2,0.6-0.3,1-0.3c0.4,0,0.7,0.1,1,0.4s0.4,0.5,0.4,0.9H173.3z M174.7,71c-0.5,0-1,0.1-1.4,0.3
		s-0.7,0.6-1,1c-0.2,0.4-0.3,0.9-0.3,1.4c0,0.5,0.1,1,0.3,1.4c0.2,0.4,0.5,0.7,1,1s0.9,0.3,1.4,0.3c0.5,0,0.9-0.1,1.3-0.2
		s0.7-0.4,1-0.7l-0.7-0.7c-0.2,0.2-0.4,0.3-0.7,0.4c-0.2,0.1-0.5,0.2-0.8,0.2c-0.4,0-0.7-0.1-1-0.3s-0.4-0.5-0.5-0.9h4
		c0-0.1,0-0.2,0-0.4c0-0.9-0.2-1.6-0.6-2S175.6,71,174.7,71 M169.1,71c-0.9,0-1.6,0.4-1.9,1.1V69h-1.3v7.4h1.3v-2.6
		c0-0.4,0.1-0.8,0.4-1.1c0.3-0.3,0.6-0.4,1-0.4c0.4,0,0.7,0.1,0.9,0.3c0.2,0.2,0.3,0.5,0.3,0.9v3h1.3v-3.3c0-0.6-0.2-1.1-0.5-1.5
		C170.2,71.2,169.7,71,169.1,71 M161.5,75.1c-0.4,0-0.8-0.1-1-0.4c-0.3-0.3-0.4-0.7-0.4-1.1c0-0.4,0.1-0.8,0.4-1.1s0.6-0.4,1-0.4
		s0.8,0.1,1,0.4c0.3,0.3,0.4,0.7,0.4,1.1s-0.1,0.8-0.4,1.1C162.3,75,162,75.1,161.5,75.1 M163,71.1v0.8c-0.2-0.3-0.4-0.5-0.7-0.6
		s-0.6-0.2-1-0.2c-0.5,0-0.9,0.1-1.2,0.3c-0.4,0.2-0.6,0.5-0.8,0.9c-0.2,0.4-0.3,0.8-0.3,1.3c0,0.5,0.1,1,0.3,1.3
		c0.2,0.4,0.5,0.7,0.8,0.9c0.4,0.2,0.8,0.3,1.2,0.3c0.4,0,0.7-0.1,1-0.2c0.3-0.1,0.5-0.4,0.7-0.6v0.6c0,0.4-0.1,0.8-0.4,1
		c-0.3,0.2-0.7,0.4-1.1,0.4c-0.6,0-1.2-0.2-1.7-0.6l-0.5,0.9c0.7,0.5,1.4,0.7,2.3,0.7c0.6,0,1.1-0.1,1.5-0.3s0.8-0.5,1-0.9
		c0.2-0.4,0.3-0.8,0.3-1.3v-4.8H163z M157.1,68.8c-0.2,0-0.4,0.1-0.5,0.2c-0.1,0.1-0.2,0.3-0.2,0.6c0,0.2,0.1,0.4,0.2,0.6
		c0.1,0.1,0.3,0.2,0.5,0.2c0.2,0,0.4-0.1,0.5-0.2s0.2-0.3,0.2-0.6c0-0.2-0.1-0.4-0.2-0.6S157.3,68.8,157.1,68.8 M156.5,76.4h1.3
		v-5.4h-1.3V76.4z M155.1,75.1c-0.3,0.1-0.6,0.2-0.8,0.2c-0.2,0-0.3-0.1-0.4-0.2c-0.1-0.1-0.1-0.3-0.1-0.5v-2.4h1.5v-0.9h-1.5v-1.5
		h-1.3v1.5h-0.8l0,0.9h0.8v2.6c0,0.5,0.1,0.9,0.4,1.2c0.3,0.3,0.7,0.4,1.1,0.4c0.5,0,0.9-0.1,1.3-0.4L155.1,75.1z M148.2,75.5
		c-0.3,0-0.5-0.1-0.7-0.2s-0.3-0.3-0.3-0.5c0-0.2,0.1-0.4,0.2-0.5c0.2-0.1,0.4-0.2,0.8-0.2h1.3v0.5c0,0.3-0.2,0.5-0.4,0.7
		C148.8,75.4,148.5,75.5,148.2,75.5 M150.9,76.4l0-3.5c0-0.6-0.2-1.1-0.6-1.4c-0.4-0.3-0.9-0.5-1.6-0.5c-0.5,0-0.9,0.1-1.2,0.2
		c-0.3,0.1-0.7,0.3-1.1,0.5l0.5,0.9c0.6-0.3,1.1-0.5,1.6-0.5c0.4,0,0.7,0.1,0.9,0.3c0.2,0.2,0.3,0.4,0.3,0.7v0.1H148
		c-0.6,0-1.1,0.2-1.5,0.4c-0.4,0.3-0.5,0.7-0.5,1.2c0,0.3,0.1,0.6,0.2,0.9c0.2,0.3,0.4,0.5,0.7,0.6c0.3,0.1,0.6,0.2,1,0.2
		c0.4,0,0.7-0.1,1-0.2c0.3-0.1,0.5-0.3,0.7-0.5v0.7H150.9z M143,71c-1,0-1.7,0.4-2,1.3c-0.1-0.4-0.3-0.7-0.7-0.9
		c-0.3-0.2-0.7-0.3-1.2-0.3c-0.9,0-1.5,0.4-1.9,1v-1H136v5.4h1.3v-2.6c0-0.4,0.1-0.8,0.4-1.1c0.2-0.3,0.6-0.4,1-0.5
		c0.4,0,0.6,0.1,0.9,0.3c0.2,0.2,0.3,0.5,0.3,0.9v3h1.3v-2.6c0-0.4,0.1-0.8,0.4-1.1c0.2-0.3,0.6-0.4,1-0.5c0.4,0,0.6,0.1,0.9,0.3
		c0.2,0.2,0.3,0.5,0.3,0.9v3h1.3v-3.3c0-0.6-0.2-1.1-0.5-1.5C144.1,71.2,143.6,71,143,71 M133,76.4h1.3V69H133V76.4z M127.9,73.3
		c0.1-0.4,0.2-0.7,0.5-0.9c0.3-0.2,0.6-0.3,1-0.3c0.4,0,0.7,0.1,1,0.4c0.2,0.2,0.4,0.5,0.4,0.9H127.9z M129.3,71
		c-0.5,0-1,0.1-1.4,0.3c-0.4,0.2-0.7,0.6-1,1s-0.3,0.9-0.3,1.4c0,0.5,0.1,1,0.3,1.4c0.2,0.4,0.5,0.7,1,1c0.4,0.2,0.9,0.3,1.4,0.3
		c0.5,0,0.9-0.1,1.3-0.2c0.4-0.2,0.7-0.4,1-0.7l-0.7-0.7c-0.2,0.2-0.4,0.3-0.7,0.4c-0.2,0.1-0.5,0.2-0.8,0.2c-0.4,0-0.7-0.1-1-0.3
		c-0.3-0.2-0.4-0.5-0.5-0.9h3.9c0-0.1,0-0.2,0-0.4c0-0.9-0.2-1.6-0.6-2C130.8,71.3,130.1,71,129.3,71 M122.8,75.1
		c-0.4,0-0.8-0.1-1-0.4c-0.3-0.3-0.4-0.7-0.4-1.1c0-0.4,0.1-0.8,0.4-1.1c0.3-0.3,0.6-0.4,1-0.4c0.4,0,0.8,0.1,1,0.4
		c0.3,0.3,0.4,0.7,0.4,1.1s-0.1,0.8-0.4,1.1C123.6,75,123.2,75.1,122.8,75.1 M124.2,71.1v0.8c-0.2-0.3-0.4-0.5-0.7-0.6
		c-0.3-0.1-0.6-0.2-1-0.2c-0.5,0-0.9,0.1-1.2,0.3c-0.4,0.2-0.6,0.5-0.8,0.9c-0.2,0.4-0.3,0.8-0.3,1.3c0,0.5,0.1,1,0.3,1.3
		c0.2,0.4,0.5,0.7,0.8,0.9c0.4,0.2,0.8,0.3,1.2,0.3c0.4,0,0.7-0.1,1-0.2c0.3-0.1,0.5-0.4,0.7-0.6v0.6c0,0.4-0.1,0.8-0.4,1
		c-0.3,0.2-0.7,0.4-1.1,0.4c-0.6,0-1.2-0.2-1.7-0.6l-0.5,0.9c0.7,0.5,1.4,0.7,2.3,0.7c0.6,0,1.1-0.1,1.5-0.3c0.4-0.2,0.8-0.5,1-0.9
		c0.2-0.4,0.3-0.8,0.3-1.3v-4.8H124.2z M115.5,73.3c0.1-0.4,0.2-0.7,0.5-0.9c0.3-0.2,0.6-0.3,1-0.3c0.4,0,0.7,0.1,1,0.4
		c0.2,0.2,0.4,0.5,0.4,0.9H115.5z M117,71c-0.5,0-1,0.1-1.4,0.3c-0.4,0.2-0.7,0.6-1,1c-0.2,0.4-0.3,0.9-0.3,1.4c0,0.5,0.1,1,0.3,1.4
		c0.2,0.4,0.5,0.7,1,1c0.4,0.2,0.9,0.3,1.4,0.3c0.5,0,0.9-0.1,1.3-0.2c0.4-0.2,0.7-0.4,1-0.7l-0.7-0.7c-0.2,0.2-0.4,0.3-0.7,0.4
		c-0.2,0.1-0.5,0.2-0.8,0.2c-0.4,0-0.7-0.1-1-0.3c-0.3-0.2-0.4-0.5-0.5-0.9h3.9c0-0.1,0-0.2,0-0.4c0-0.9-0.2-1.6-0.6-2
		C118.5,71.3,117.8,71,117,71 M112,72.1v-1h-1.3v5.4h1.3v-2.6c0-0.5,0.2-0.9,0.5-1.2c0.3-0.3,0.8-0.4,1.3-0.4V71
		c-0.4,0-0.8,0.1-1.1,0.3C112.4,71.5,112.2,71.8,112,72.1 M107.3,71c-0.9,0-1.6,0.4-1.9,1.1v-1H104v5.4h1.3v-2.6
		c0-0.4,0.1-0.8,0.4-1.1s0.6-0.4,1-0.4c0.4,0,0.7,0.1,0.9,0.3c0.2,0.2,0.3,0.5,0.3,0.9v3h1.3v-3.3c0-0.6-0.2-1.1-0.5-1.5
		C108.4,71.2,107.9,71,107.3,71 M99.2,70.5c0.4,0,0.8,0.1,1.2,0.3s0.6,0.5,0.9,0.9c0.2,0.4,0.3,0.8,0.3,1.2s-0.1,0.8-0.3,1.2
		c-0.2,0.4-0.5,0.7-0.9,0.9c-0.4,0.2-0.8,0.3-1.2,0.3c-0.4,0-0.8-0.1-1.2-0.3c-0.4-0.2-0.7-0.5-0.9-0.9c-0.2-0.4-0.3-0.8-0.3-1.2
		s0.1-0.8,0.3-1.2c0.2-0.4,0.5-0.6,0.9-0.9C98.4,70.6,98.8,70.5,99.2,70.5 M99.2,69.3c-0.7,0-1.3,0.2-1.9,0.5
		c-0.6,0.3-1,0.7-1.3,1.3s-0.5,1.2-0.5,1.8s0.2,1.3,0.5,1.8c0.3,0.5,0.8,1,1.3,1.3c0.6,0.3,1.2,0.5,1.9,0.5c0.7,0,1.3-0.2,1.9-0.5
		c0.6-0.3,1-0.8,1.3-1.3c0.3-0.6,0.5-1.2,0.5-1.8s-0.2-1.3-0.5-1.8s-0.8-1-1.3-1.3C100.5,69.5,99.9,69.3,99.2,69.3"/>
	<ellipse transform="matrix(0.2298 -0.9732 0.9732 0.2298 124.6324 264.016)" class="st1" cx="229.1" cy="53.3" rx="12" ry="12"/>
</g>
<path class="st2" d="M226.1,5.4h3v3 M214.2,5.4h6 M202.2,53.3h6 M190.2,53.3h6 M202.2,5.4h6 M190.2,5.4h6 M184.3,5.4h-3v3
	 M181.3,50.3v3h3 M229.1,26.4v6 M229.1,14.4v6 M181.3,38.3v6 M181.3,26.4v6 M181.3,14.4v6 M229.1,47.3v12 M223.1,53.3h12
	 M237.6,61.7L250,74.2"/>
<g>
	<path class="st3" d="M184.3,3.9h-3c-0.8,0-1.5,0.7-1.5,1.5v3c0,0.8,0.7,1.5,1.5,1.5s1.5-0.7,1.5-1.5V6.9h1.5c0.8,0,1.5-0.7,1.5-1.5
		S185.1,3.9,184.3,3.9z"/>
	<path class="st3" d="M181.3,45.8c0.8,0,1.5-0.7,1.5-1.5v-6c0-0.8-0.7-1.5-1.5-1.5s-1.5,0.7-1.5,1.5v6
		C179.8,45.1,180.4,45.8,181.3,45.8z"/>
	<path class="st3" d="M181.3,33.8c0.8,0,1.5-0.7,1.5-1.5v-6c0-0.8-0.7-1.5-1.5-1.5s-1.5,0.7-1.5,1.5v6
		C179.8,33.2,180.4,33.8,181.3,33.8z"/>
	<path class="st3" d="M184.3,51.8h-1.5v-1.5c0-0.8-0.7-1.5-1.5-1.5s-1.5,0.7-1.5,1.5v3c0,0.8,0.7,1.5,1.5,1.5h3
		c0.8,0,1.5-0.7,1.5-1.5S185.1,51.8,184.3,51.8z"/>
	<path class="st3" d="M226.1,6.9h1.5v1.5c0,0.8,0.7,1.5,1.5,1.5s1.5-0.7,1.5-1.5v-3c0-0.8-0.7-1.5-1.5-1.5h-3
		c-0.8,0-1.5,0.7-1.5,1.5S225.3,6.9,226.1,6.9z"/>
	<path class="st3" d="M229.1,24.9c-0.8,0-1.5,0.7-1.5,1.5v6c0,0.8,0.7,1.5,1.5,1.5s1.5-0.7,1.5-1.5v-6
		C230.6,25.5,229.9,24.9,229.1,24.9z"/>
	<path class="st3" d="M181.3,21.9c0.8,0,1.5-0.7,1.5-1.5v-6c0-0.8-0.7-1.5-1.5-1.5s-1.5,0.7-1.5,1.5v6
		C179.8,21.2,180.4,21.9,181.3,21.9z"/>
	<path class="st3" d="M230.6,14.4c0-0.8-0.7-1.5-1.5-1.5s-1.5,0.7-1.5,1.5v6c0,0.8,0.7,1.5,1.5,1.5s1.5-0.7,1.5-1.5V14.4z"/>
	<path class="st3" d="M221.6,5.4c0-0.8-0.7-1.5-1.5-1.5h-6c-0.8,0-1.5,0.7-1.5,1.5s0.7,1.5,1.5,1.5h6C221,6.9,221.6,6.3,221.6,5.4z"
		/>
	<path class="st3" d="M235.1,51.8h-4.5v-4.5c0-0.8-0.7-1.5-1.5-1.5s-1.5,0.7-1.5,1.5v4.5h-4.5c-0.8,0-1.5,0.7-1.5,1.5
		s0.7,1.5,1.5,1.5h4.5v4.5c0,0.8,0.7,1.5,1.5,1.5s1.5-0.7,1.5-1.5v-4.5h4.5c0.8,0,1.5-0.7,1.5-1.5S235.9,51.8,235.1,51.8z"/>
	<path class="st3" d="M251.1,73.1l-11.5-11.5c1.8-2.3,2.9-5.2,2.9-8.4c0-7.4-6-13.5-13.5-13.5c-7.4,0-13.5,6-13.5,13.5
		s6,13.5,13.5,13.5c3.2,0,6.1-1.1,8.4-3L249,75.3c0.3,0.3,0.7,0.4,1.1,0.4c0.4,0,0.8-0.1,1.1-0.4C251.7,74.7,251.7,73.7,251.1,73.1z
		 M218.7,53.3c0-5.8,4.7-10.5,10.5-10.5s10.5,4.7,10.5,10.5s-4.7,10.5-10.5,10.5S218.7,59,218.7,53.3z"/>
	<path class="st3" d="M196.2,3.9h-6c-0.8,0-1.5,0.7-1.5,1.5s0.7,1.5,1.5,1.5h6c0.8,0,1.5-0.7,1.5-1.5S197.1,3.9,196.2,3.9z"/>
	<path class="st3" d="M196.2,51.8h-6c-0.8,0-1.5,0.7-1.5,1.5s0.7,1.5,1.5,1.5h6c0.8,0,1.5-0.7,1.5-1.5S197.1,51.8,196.2,51.8z"/>
	<path class="st3" d="M208.2,51.8h-6c-0.8,0-1.5,0.7-1.5,1.5s0.7,1.5,1.5,1.5h6c0.8,0,1.5-0.7,1.5-1.5S209,51.8,208.2,51.8z"/>
	<path class="st3" d="M208.2,3.9h-6c-0.8,0-1.5,0.7-1.5,1.5s0.7,1.5,1.5,1.5h6c0.8,0,1.5-0.7,1.5-1.5S209,3.9,208.2,3.9z"/>
</g>
</svg>
